<svg width="32" height="10" viewBox="0 0 32 10" fill="none" xmlns="http://www.w3.org/2000/svg">
<path d="M29.2318 5.84574C29.3467 5.69835 27.2506 4.06554 27.0362 3.97174C26.5366 3.75544 26.9597 4.41009 26.7931 4.74316C26.372 5.57776 23.6156 5.79789 22.6661 5.85532C16.5751 6.23241 10.0994 5.6639 3.87821 5.85532C3.16804 5.87637 -0.202858 6.14436 0.00961846 5.12026C0.206781 4.79102 0.440313 4.8561 0.738929 4.80441C7.00411 3.69801 13.2674 3.85689 19.5345 4.18613L26.3088 3.5487C25.547 2.61457 23.4854 2.13794 22.7561 1.36268C22.5761 1.17126 22.379 0.89753 22.4383 0.612314C22.6508 -0.406041 23.7629 0.0897373 24.4272 0.319441C25.9566 0.85159 30.0683 3.58698 31.3068 4.71062C32.5415 5.83043 31.9978 6.79136 30.6885 7.40773C29.2663 8.07579 24.7009 9.62629 23.1906 9.93065C22.2986 10.1106 21.6363 10.034 21.9655 8.91804C22.3311 7.67572 27.9225 6.34535 29.2318 5.84574Z" fill="currentColor"/>
</svg>
