<svg xmlns="http://www.w3.org/2000/svg" xmlns:xlink="http://www.w3.org/1999/xlink" width="500" zoomAndPan="magnify" viewBox="0 0 375 374.999991" height="500" preserveAspectRatio="xMidYMid meet" version="1.0"><defs><clipPath id="fbfd5cd2ce"><path d="M 131.25 131.25 L 243.75 131.25 L 243.75 243.75 L 131.25 243.75 Z M 131.25 131.25 " clip-rule="nonzero"/></clipPath><clipPath id="3874a0688e"><path d="M 169.5 131.25 L 205.5 131.25 C 215.644531 131.25 225.375 135.28125 232.546875 142.453125 C 239.71875 149.625 243.75 159.355469 243.75 169.5 L 243.75 205.5 C 243.75 215.644531 239.71875 225.375 232.546875 232.546875 C 225.375 239.71875 215.644531 243.75 205.5 243.75 L 169.5 243.75 C 148.375 243.75 131.25 226.625 131.25 205.5 L 131.25 169.5 C 131.25 148.375 148.375 131.25 169.5 131.25 Z M 169.5 131.25 " clip-rule="nonzero"/></clipPath><clipPath id="2be3775c8b"><path d="M 0.25 0.25 L 112.75 0.25 L 112.75 112.75 L 0.25 112.75 Z M 0.25 0.25 " clip-rule="nonzero"/></clipPath><clipPath id="ea877f696f"><path d="M 38.5 0.25 L 74.5 0.25 C 84.644531 0.25 94.375 4.28125 101.546875 11.453125 C 108.71875 18.625 112.75 28.355469 112.75 38.5 L 112.75 74.5 C 112.75 84.644531 108.71875 94.375 101.546875 101.546875 C 94.375 108.71875 84.644531 112.75 74.5 112.75 L 38.5 112.75 C 17.375 112.75 0.25 95.625 0.25 74.5 L 0.25 38.5 C 0.25 17.375 17.375 0.25 38.5 0.25 Z M 38.5 0.25 " clip-rule="nonzero"/></clipPath><clipPath id="6182c6ea9f"><rect x="0" width="113" y="0" height="113"/></clipPath><clipPath id="5ea02f2ef3"><path d="M 156.109375 156.53125 L 219 156.53125 L 219 218.46875 L 156.109375 218.46875 Z M 156.109375 156.53125 " clip-rule="nonzero"/></clipPath><clipPath id="3d6bf94cd3"><path d="M 173.359375 156.53125 L 201.640625 156.53125 C 206.214844 156.53125 210.601562 158.347656 213.839844 161.582031 C 217.074219 164.816406 218.890625 169.207031 218.890625 173.78125 L 218.890625 201.21875 C 218.890625 205.792969 217.074219 210.183594 213.839844 213.417969 C 210.601562 216.652344 206.214844 218.46875 201.640625 218.46875 L 173.359375 218.46875 C 168.785156 218.46875 164.398438 216.652344 161.160156 213.417969 C 157.925781 210.183594 156.109375 205.792969 156.109375 201.21875 L 156.109375 173.78125 C 156.109375 169.207031 157.925781 164.816406 161.160156 161.582031 C 164.398438 158.347656 168.785156 156.53125 173.359375 156.53125 Z M 173.359375 156.53125 " clip-rule="nonzero"/></clipPath><clipPath id="e7ba735d3e"><path d="M 0.109375 0.53125 L 63 0.53125 L 63 62.46875 L 0.109375 62.46875 Z M 0.109375 0.53125 " clip-rule="nonzero"/></clipPath><clipPath id="5338857d45"><path d="M 17.359375 0.53125 L 45.640625 0.53125 C 50.214844 0.53125 54.601562 2.347656 57.839844 5.582031 C 61.074219 8.816406 62.890625 13.207031 62.890625 17.78125 L 62.890625 45.21875 C 62.890625 49.792969 61.074219 54.183594 57.839844 57.417969 C 54.601562 60.652344 50.214844 62.46875 45.640625 62.46875 L 17.359375 62.46875 C 12.785156 62.46875 8.398438 60.652344 5.160156 57.417969 C 1.925781 54.183594 0.109375 49.792969 0.109375 45.21875 L 0.109375 17.78125 C 0.109375 13.207031 1.925781 8.816406 5.160156 5.582031 C 8.398438 2.347656 12.785156 0.53125 17.359375 0.53125 Z M 17.359375 0.53125 " clip-rule="nonzero"/></clipPath><clipPath id="f52c7c362f"><rect x="0" width="63" y="0" height="63"/></clipPath></defs><rect x="-37.5" width="450" fill="#ffffff" y="-37.499999" height="449.999989" fill-opacity="1"/><rect x="-37.5" width="450" fill="#ffffff" y="-37.499999" height="449.999989" fill-opacity="1"/><g clip-path="url(#fbfd5cd2ce)"><g clip-path="url(#3874a0688e)"><g transform="matrix(1, 0, 0, 1, 131, 131)"><g clip-path="url(#6182c6ea9f)"><g clip-path="url(#2be3775c8b)"><g clip-path="url(#ea877f696f)"><path fill="#5170ff" d="M 0.25 0.25 L 112.75 0.25 L 112.75 112.75 L 0.25 112.75 Z M 0.25 0.25 " fill-opacity="1" fill-rule="nonzero"/></g></g></g></g></g></g><g clip-path="url(#5ea02f2ef3)"><g clip-path="url(#3d6bf94cd3)"><g transform="matrix(1, 0, 0, 1, 156, 156)"><g clip-path="url(#f52c7c362f)"><g clip-path="url(#e7ba735d3e)"><g clip-path="url(#5338857d45)"><path fill="#ffffff" d="M 0.109375 0.53125 L 62.773438 0.53125 L 62.773438 62.46875 L 0.109375 62.46875 Z M 0.109375 0.53125 " fill-opacity="1" fill-rule="nonzero"/></g></g></g></g></g></g></svg>